<svg width="392" height="234" viewBox="0 0 392 234" fill="none" xmlns="http://www.w3.org/2000/svg">
<rect x="101" width="58.4416" height="50" fill="#008E97"/>
<rect x="101" y="52" width="58.4416" height="50" fill="#F58220"/>
<rect x="161.779" y="30" width="58.4416" height="50" fill="#F58220"/>
<rect x="161.779" y="82" width="58.4416" height="50" fill="#008E97"/>
<rect x="222.558" y="54" width="58.4416" height="50" fill="#222222"/>
<path d="M130.048 38.288C127.528 38.288 125.248 37.736 123.208 36.632C121.192 35.504 119.608 33.968 118.456 32.024C117.304 30.056 116.728 27.848 116.728 25.4C116.728 22.952 117.304 20.756 118.456 18.812C119.608 16.844 121.204 15.308 123.244 14.204C125.284 13.076 127.564 12.512 130.084 12.512C132.052 12.512 133.852 12.848 135.484 13.52C137.116 14.168 138.508 15.14 139.66 16.436L137.32 18.704C135.424 16.712 133.06 15.716 130.228 15.716C128.356 15.716 126.664 16.136 125.152 16.976C123.64 17.816 122.452 18.98 121.588 20.468C120.748 21.932 120.328 23.576 120.328 25.4C120.328 27.224 120.748 28.88 121.588 30.368C122.452 31.832 123.64 32.984 125.152 33.824C126.664 34.664 128.356 35.084 130.228 35.084C133.036 35.084 135.4 34.076 137.32 32.06L139.66 34.328C138.508 35.624 137.104 36.608 135.448 37.28C133.816 37.952 132.016 38.288 130.048 38.288Z" fill="white"/>
<path d="M180.78 42.8H191.4C194.064 42.8 196.428 43.328 198.492 44.384C200.556 45.44 202.152 46.928 203.28 48.848C204.432 50.744 205.008 52.928 205.008 55.4C205.008 57.872 204.432 60.068 203.28 61.988C202.152 63.884 200.556 65.36 198.492 66.416C196.428 67.472 194.064 68 191.4 68H180.78V42.8ZM191.184 64.868C193.224 64.868 195.012 64.472 196.548 63.68C198.108 62.888 199.308 61.784 200.148 60.368C200.988 58.928 201.408 57.272 201.408 55.4C201.408 53.528 200.988 51.884 200.148 50.468C199.308 49.028 198.108 47.912 196.548 47.12C195.012 46.328 193.224 45.932 191.184 45.932H184.38V64.868H191.184Z" fill="white"/>
<path d="M135.068 86.868V90H116.78V64.8H134.564V67.932H120.38V75.672H133.016V78.732H120.38V86.868H135.068Z" fill="white"/>
<path d="M195.628 120L190.192 112.26C189.52 112.308 188.992 112.332 188.608 112.332H182.38V120H178.78V94.8H188.608C191.872 94.8 194.44 95.58 196.312 97.14C198.184 98.7 199.12 100.848 199.12 103.584C199.12 105.528 198.64 107.184 197.68 108.552C196.72 109.92 195.352 110.916 193.576 111.54L199.552 120H195.628ZM188.5 109.272C190.78 109.272 192.52 108.78 193.72 107.796C194.92 106.812 195.52 105.408 195.52 103.584C195.52 101.76 194.92 100.368 193.72 99.408C192.52 98.424 190.78 97.932 188.5 97.932H182.38V109.272H188.5Z" fill="white"/>
<path d="M252.156 90.288C249.612 90.288 247.32 89.736 245.28 88.632C243.24 87.504 241.632 85.956 240.456 83.988C239.304 82.02 238.728 79.824 238.728 77.4C238.728 74.976 239.304 72.78 240.456 70.812C241.632 68.844 243.24 67.308 245.28 66.204C247.32 65.076 249.612 64.512 252.156 64.512C254.676 64.512 256.956 65.076 258.996 66.204C261.036 67.308 262.632 68.844 263.784 70.812C264.936 72.756 265.512 74.952 265.512 77.4C265.512 79.848 264.936 82.056 263.784 84.024C262.632 85.968 261.036 87.504 258.996 88.632C256.956 89.736 254.676 90.288 252.156 90.288ZM252.156 87.084C254.004 87.084 255.66 86.664 257.124 85.824C258.612 84.984 259.776 83.832 260.616 82.368C261.48 80.88 261.912 79.224 261.912 77.4C261.912 75.576 261.48 73.932 260.616 72.468C259.776 70.98 258.612 69.816 257.124 68.976C255.66 68.136 254.004 67.716 252.156 67.716C250.308 67.716 248.628 68.136 247.116 68.976C245.628 69.816 244.452 70.98 243.588 72.468C242.748 73.932 242.328 75.576 242.328 77.4C242.328 79.224 242.748 80.88 243.588 82.368C244.452 83.832 245.628 84.984 247.116 85.824C248.628 86.664 250.308 87.084 252.156 87.084Z" fill="white"/>
<path d="M40.212 155.8L31.86 181H26.892L20.664 162.352L14.328 181H9.324L0.972 155.8H5.832L12.096 174.952L18.612 155.8H22.932L29.304 175.06L35.748 155.8H40.212ZM62.9246 177.076V181H44.0246V155.8H62.4206V159.724H48.7046V166.276H60.8726V170.128H48.7046V177.076H62.9246ZM85.9978 167.896C87.3898 168.352 88.4938 169.12 89.3098 170.2C90.1258 171.256 90.5338 172.576 90.5338 174.16C90.5338 176.344 89.6938 178.036 88.0138 179.236C86.3338 180.412 83.8858 181 80.6698 181H68.1418V155.8H79.9498C82.9258 155.8 85.2178 156.388 86.8258 157.564C88.4338 158.716 89.2378 160.312 89.2378 162.352C89.2378 163.6 88.9498 164.704 88.3738 165.664C87.7978 166.624 87.0058 167.368 85.9978 167.896ZM72.8218 159.472V166.42H79.4458C81.0778 166.42 82.3258 166.132 83.1898 165.556C84.0778 164.956 84.5218 164.092 84.5218 162.964C84.5218 161.812 84.0778 160.948 83.1898 160.372C82.3258 159.772 81.0778 159.472 79.4458 159.472H72.8218ZM80.3818 177.328C84.0058 177.328 85.8178 176.116 85.8178 173.692C85.8178 171.268 84.0058 170.056 80.3818 170.056H72.8218V177.328H80.3818ZM105.478 155.8H116.494C119.182 155.8 121.57 156.328 123.658 157.384C125.746 158.416 127.366 159.892 128.518 161.812C129.67 163.708 130.246 165.904 130.246 168.4C130.246 170.896 129.67 173.104 128.518 175.024C127.366 176.92 125.746 178.396 123.658 179.452C121.57 180.484 119.182 181 116.494 181H105.478V155.8ZM116.278 177.04C118.126 177.04 119.746 176.692 121.138 175.996C122.554 175.276 123.634 174.268 124.378 172.972C125.146 171.652 125.53 170.128 125.53 168.4C125.53 166.672 125.146 165.16 124.378 163.864C123.634 162.544 122.554 161.536 121.138 160.84C119.746 160.12 118.126 159.76 116.278 159.76H110.158V177.04H116.278ZM154.12 177.076V181H135.22V155.8H153.616V159.724H139.9V166.276H152.068V170.128H139.9V177.076H154.12ZM182.026 155.8L171.046 181H166.438L155.422 155.8H160.498L168.886 175.24L177.346 155.8H182.026ZM203.585 177.076V181H184.685V155.8H203.081V159.724H189.365V166.276H201.533V170.128H189.365V177.076H203.585ZM208.802 155.8H213.482V177.04H226.658V181H208.802V155.8ZM241.668 181.36C239.1 181.36 236.784 180.808 234.72 179.704C232.656 178.576 231.036 177.028 229.86 175.06C228.684 173.068 228.096 170.848 228.096 168.4C228.096 165.952 228.684 163.744 229.86 161.776C231.036 159.784 232.656 158.236 234.72 157.132C236.784 156.004 239.1 155.44 241.668 155.44C244.236 155.44 246.552 156.004 248.616 157.132C250.68 158.236 252.3 159.772 253.476 161.74C254.652 163.708 255.24 165.928 255.24 168.4C255.24 170.872 254.652 173.092 253.476 175.06C252.3 177.028 250.68 178.576 248.616 179.704C246.552 180.808 244.236 181.36 241.668 181.36ZM241.668 177.256C243.348 177.256 244.86 176.884 246.204 176.14C247.548 175.372 248.604 174.316 249.372 172.972C250.14 171.604 250.524 170.08 250.524 168.4C250.524 166.72 250.14 165.208 249.372 163.864C248.604 162.496 247.548 161.44 246.204 160.696C244.86 159.928 243.348 159.544 241.668 159.544C239.988 159.544 238.476 159.928 237.132 160.696C235.788 161.44 234.732 162.496 233.964 163.864C233.196 165.208 232.812 166.72 232.812 168.4C232.812 170.08 233.196 171.604 233.964 172.972C234.732 174.316 235.788 175.372 237.132 176.14C238.476 176.884 239.988 177.256 241.668 177.256ZM270.568 155.8C272.752 155.8 274.648 156.16 276.256 156.88C277.888 157.6 279.136 158.632 280 159.976C280.864 161.32 281.296 162.916 281.296 164.764C281.296 166.588 280.864 168.184 280 169.552C279.136 170.896 277.888 171.928 276.256 172.648C274.648 173.368 272.752 173.728 270.568 173.728H264.88V181H260.2V155.8H270.568ZM270.352 169.768C272.392 169.768 273.94 169.336 274.996 168.472C276.052 167.608 276.58 166.372 276.58 164.764C276.58 163.156 276.052 161.92 274.996 161.056C273.94 160.192 272.392 159.76 270.352 159.76H264.88V169.768H270.352ZM309.118 181L309.082 164.296L300.802 178.12H298.714L290.434 164.512V181H285.97V155.8H289.822L299.83 172.504L309.658 155.8H313.51L313.546 181H309.118ZM339.253 177.076V181H320.353V155.8H338.749V159.724H325.033V166.276H337.201V170.128H325.033V177.076H339.253ZM366.862 155.8V181H363.01L349.114 163.936V181H344.47V155.8H348.322L362.218 172.864V155.8H366.862ZM378.726 159.76H370.374V155.8H391.758V159.76H383.406V181H378.726V159.76Z" fill="#222222"/>
</svg>
