<svg width="1211" height="216" viewBox="0 0 1211 216" fill="none" xmlns="http://www.w3.org/2000/svg">
<path d="M244.04 107.6C244.04 97.712 246.248 88.88 250.664 81.104C255.176 73.232 261.272 67.136 268.952 62.816C276.728 58.4 285.416 56.192 295.016 56.192C306.248 56.192 316.088 59.072 324.536 64.832C332.984 70.592 338.888 78.56 342.248 88.736H319.064C316.76 83.936 313.496 80.336 309.272 77.936C305.144 75.536 300.344 74.336 294.872 74.336C289.016 74.336 283.784 75.728 279.176 78.512C274.664 81.2 271.112 85.04 268.52 90.032C266.024 95.024 264.776 100.88 264.776 107.6C264.776 114.224 266.024 120.08 268.52 125.168C271.112 130.16 274.664 134.048 279.176 136.832C283.784 139.52 289.016 140.864 294.872 140.864C300.344 140.864 305.144 139.664 309.272 137.264C313.496 134.768 316.76 131.12 319.064 126.32H342.248C338.888 136.592 332.984 144.608 324.536 150.368C316.184 156.032 306.344 158.864 295.016 158.864C285.416 158.864 276.728 156.704 268.952 152.384C261.272 147.968 255.176 141.872 250.664 134.096C246.248 126.32 244.04 117.488 244.04 107.6ZM433.627 116.384C433.627 119.264 433.435 121.856 433.051 124.16H374.731C375.211 129.92 377.227 134.432 380.779 137.696C384.331 140.96 388.699 142.592 393.883 142.592C401.371 142.592 406.699 139.376 409.867 132.944H431.611C429.307 140.624 424.891 146.96 418.363 151.952C411.835 156.848 403.819 159.296 394.315 159.296C386.635 159.296 379.723 157.616 373.579 154.256C367.531 150.8 362.779 145.952 359.323 139.712C355.963 133.472 354.283 126.272 354.283 118.112C354.283 109.856 355.963 102.608 359.323 96.368C362.683 90.128 367.387 85.328 373.435 81.968C379.483 78.608 386.443 76.928 394.315 76.928C401.899 76.928 408.667 78.56 414.619 81.824C420.667 85.088 425.323 89.744 428.587 95.792C431.947 101.744 433.627 108.608 433.627 116.384ZM412.747 110.624C412.651 105.44 410.779 101.312 407.131 98.24C403.483 95.072 399.019 93.488 393.739 93.488C388.747 93.488 384.523 95.024 381.067 98.096C377.707 101.072 375.643 105.248 374.875 110.624H412.747ZM443.158 117.824C443.158 109.76 444.742 102.608 447.91 96.368C451.174 90.128 455.59 85.328 461.158 81.968C466.726 78.608 472.918 76.928 479.734 76.928C484.918 76.928 489.862 78.08 494.566 80.384C499.27 82.592 503.014 85.568 505.798 89.312V51.44H526.246V158H505.798V146.192C503.302 150.128 499.798 153.296 495.286 155.696C490.774 158.096 485.542 159.296 479.59 159.296C472.87 159.296 466.726 157.568 461.158 154.112C455.59 150.656 451.174 145.808 447.91 139.568C444.742 133.232 443.158 125.984 443.158 117.824ZM505.942 118.112C505.942 113.216 504.982 109.04 503.062 105.584C501.142 102.032 498.55 99.344 495.286 97.52C492.022 95.6 488.518 94.64 484.774 94.64C481.03 94.64 477.574 95.552 474.406 97.376C471.238 99.2 468.646 101.888 466.63 105.44C464.71 108.896 463.75 113.024 463.75 117.824C463.75 122.624 464.71 126.848 466.63 130.496C468.646 134.048 471.238 136.784 474.406 138.704C477.67 140.624 481.126 141.584 484.774 141.584C488.518 141.584 492.022 140.672 495.286 138.848C498.55 136.928 501.142 134.24 503.062 130.784C504.982 127.232 505.942 123.008 505.942 118.112ZM566.096 90.608C568.688 86.384 572.048 83.072 576.176 80.672C580.4 78.272 585.2 77.072 590.576 77.072V98.24H585.248C578.912 98.24 574.112 99.728 570.848 102.704C567.68 105.68 566.096 110.864 566.096 118.256V158H545.936V78.224H566.096V90.608ZM639.579 159.296C631.899 159.296 624.987 157.616 618.843 154.256C612.699 150.8 607.851 145.952 604.299 139.712C600.843 133.472 599.115 126.272 599.115 118.112C599.115 109.952 600.891 102.752 604.443 96.512C608.091 90.272 613.035 85.472 619.275 82.112C625.515 78.656 632.475 76.928 640.155 76.928C647.835 76.928 654.795 78.656 661.035 82.112C667.275 85.472 672.171 90.272 675.723 96.512C679.371 102.752 681.195 109.952 681.195 118.112C681.195 126.272 679.323 133.472 675.579 139.712C671.931 145.952 666.939 150.8 660.603 154.256C654.363 157.616 647.355 159.296 639.579 159.296ZM639.579 141.728C643.227 141.728 646.635 140.864 649.803 139.136C653.067 137.312 655.659 134.624 657.579 131.072C659.499 127.52 660.459 123.2 660.459 118.112C660.459 110.528 658.443 104.72 654.411 100.688C650.475 96.56 645.627 94.496 639.867 94.496C634.107 94.496 629.259 96.56 625.323 100.688C621.483 104.72 619.563 110.528 619.563 118.112C619.563 125.696 621.435 131.552 625.179 135.68C629.019 139.712 633.819 141.728 639.579 141.728Z" fill="white"/>
<path d="M696.559 158V111.344L688.927 96.944L696.559 90.032C696.079 88.4 695.695 86.24 695.407 83.552C695.215 80.768 695.119 78.512 695.119 76.784C695.119 71.312 696.367 66.512 698.863 62.384C701.455 58.256 705.007 55.04 709.519 52.736C714.031 50.336 719.119 49.136 724.783 49.136C727.471 49.136 730.303 49.28 733.279 49.568C736.351 49.76 738.991 50.144 741.199 50.72L756.607 59.504L745.519 79.52L728.959 69.44C725.695 69.44 723.295 70.64 721.759 73.04C720.223 75.344 719.455 77.936 719.455 80.816C719.455 82.928 719.791 84.8 720.463 86.432C721.135 88.064 721.807 89.264 722.479 90.032H745.519V107.312H722.479V134.672L723.919 149.216L722.479 158H696.559ZM772.475 85.856L754.187 67.424L772.475 49.136L790.763 67.424L772.475 85.856ZM759.515 158V110.336L756.491 98.816L759.371 90.032H785.435V158H759.515ZM801.562 158V114.656L798.682 98.816L803.146 90.032H824.602V96.224L825.898 97.088C826.954 96.128 828.394 95.024 830.218 93.776C832.138 92.432 834.442 91.232 837.13 90.176C839.818 89.12 842.842 88.592 846.202 88.592C854.842 88.592 861.322 91.04 865.642 95.936C869.962 100.832 872.122 107.696 872.122 116.528V134.816L875.146 149.216L872.122 158H846.202V120.272C846.202 116.624 845.386 113.84 843.754 111.92C842.218 109.904 839.77 108.896 836.41 108.896L827.482 111.632V158H801.562ZM907.751 159.44C903.623 159.44 899.783 158.864 896.231 157.712C892.775 156.464 889.991 154.352 887.879 151.376C885.767 148.4 884.711 144.272 884.711 138.992C884.711 134.192 885.911 130.208 888.311 127.04C890.711 123.872 893.975 121.52 898.103 119.984C902.231 118.448 906.887 117.68 912.071 117.68C917.063 117.68 920.807 118.256 923.303 119.408C925.799 120.464 927.959 121.568 929.783 122.72L930.791 121.856C930.791 118.976 930.551 116.576 930.071 114.656C929.591 112.736 928.487 111.296 926.759 110.336C925.031 109.28 922.343 108.752 918.695 108.752C915.143 108.752 911.351 109.088 907.319 109.76C903.383 110.336 899.735 111.104 896.375 112.064C893.111 112.928 890.663 113.792 889.031 114.656V93.056C892.007 92 896.231 91.04 901.703 90.176C907.271 89.216 914.087 88.736 922.151 88.736C930.791 88.736 937.607 89.84 942.599 92.048C947.687 94.16 951.335 97.28 953.543 101.408C955.751 105.44 956.855 110.288 956.855 115.952V135.104L959.735 149.648L956.855 158.144H932.231V151.088L930.791 150.368C930.023 151.136 928.679 152.24 926.759 153.68C924.839 155.12 922.295 156.464 919.127 157.712C915.959 158.864 912.167 159.44 907.751 159.44ZM919.991 140.576C922.583 140.576 924.791 140.336 926.615 139.856C928.535 139.376 929.927 138.944 930.791 138.56V135.824C930.791 134.576 929.879 133.376 928.055 132.224C926.327 131.072 923.591 130.496 919.847 130.496C914.663 130.496 912.071 132.32 912.071 135.968C912.071 137.504 912.647 138.656 913.799 139.424C914.951 140.192 917.015 140.576 919.991 140.576ZM974.109 158V114.656L971.229 98.816L975.693 90.032H997.149V96.224L998.445 97.088C999.501 96.128 1000.94 95.024 1002.76 93.776C1004.68 92.432 1006.99 91.232 1009.68 90.176C1012.36 89.12 1015.39 88.592 1018.75 88.592C1027.39 88.592 1033.87 91.04 1038.19 95.936C1042.51 100.832 1044.67 107.696 1044.67 116.528V134.816L1047.69 149.216L1044.67 158H1018.75V120.272C1018.75 116.624 1017.93 113.84 1016.3 111.92C1014.76 109.904 1012.32 108.896 1008.96 108.896L1000.03 111.632V158H974.109ZM1091.82 159.44C1085.19 159.44 1079.19 158.336 1073.82 156.128C1068.54 153.92 1064.31 150.224 1061.15 145.04C1058.07 139.856 1056.54 132.848 1056.54 124.016C1056.54 115.088 1058.22 108.08 1061.58 102.992C1064.94 97.808 1069.31 94.112 1074.68 91.904C1080.06 89.696 1085.77 88.592 1091.82 88.592C1097.1 88.592 1101.61 88.784 1105.35 89.168C1109.19 89.552 1111.74 89.888 1112.99 90.176L1124.22 102.848L1112.7 118.544L1096.14 108.752C1087.88 108.752 1083.75 113.84 1083.75 124.016C1083.75 129.296 1085 133.184 1087.5 135.68C1089.99 138.08 1093.83 139.28 1099.02 139.28C1104.2 139.28 1108.86 138.56 1112.99 137.12C1117.11 135.68 1120.33 134.336 1122.63 133.088V153.824C1119.66 155.36 1115.72 156.704 1110.83 157.856C1106.03 158.912 1099.69 159.44 1091.82 159.44ZM1171.76 159.44C1164.37 159.44 1157.79 158.336 1152.03 156.128C1146.27 153.92 1141.76 150.224 1138.5 145.04C1135.23 139.856 1133.6 132.848 1133.6 124.016C1133.6 117.68 1134.66 112.256 1136.77 107.744C1138.98 103.232 1141.9 99.584 1145.55 96.8C1149.2 93.92 1153.28 91.856 1157.79 90.608C1162.3 89.264 1166.96 88.592 1171.76 88.592C1180.02 88.592 1186.35 89.408 1190.77 91.04C1195.28 92.672 1198.26 93.968 1199.7 94.928L1206.9 117.824L1204.02 126.752H1159.38C1160.05 130.304 1161.82 133.28 1164.7 135.68C1167.58 138.08 1172.34 139.28 1178.96 139.28C1184.14 139.28 1188.61 138.704 1192.35 137.552C1196.1 136.4 1199.02 135.392 1201.14 134.528V153.824C1198.26 155.36 1194.08 156.704 1188.61 157.856C1183.23 158.912 1177.62 159.44 1171.76 159.44ZM1159.52 117.536L1179.39 114.656L1178.1 108.464C1177.42 108.08 1176.42 107.792 1175.07 107.6C1173.82 107.408 1172.72 107.312 1171.76 107.312C1169.07 107.312 1166.82 107.888 1164.99 109.04C1163.26 110.192 1161.92 111.584 1160.96 113.216C1160.1 114.752 1159.62 116.192 1159.52 117.536Z" fill="#FFC107"/>
<path d="M100 18.75C83.9303 18.75 68.2214 23.5152 54.86 32.4431C41.4985 41.371 31.0844 54.0605 24.9348 68.907C18.7852 83.7535 17.1762 100.09 20.3112 115.851C23.4463 131.612 31.1846 146.089 42.5476 157.452C53.9106 168.815 68.388 176.554 84.1489 179.689C99.9099 182.824 116.247 181.215 131.093 175.065C145.94 168.916 158.629 158.502 167.557 145.14C176.485 131.779 181.25 116.07 181.25 100C181.226 78.4586 172.658 57.8065 157.426 42.5745C142.193 27.3425 121.541 18.7744 100 18.75V18.75ZM109.375 137.5H106.25V143.75C106.25 145.408 105.592 146.997 104.419 148.169C103.247 149.342 101.658 150 100 150C98.3424 150 96.7527 149.342 95.5806 148.169C94.4085 146.997 93.75 145.408 93.75 143.75V137.5H81.25C79.5924 137.5 78.0027 136.842 76.8306 135.669C75.6585 134.497 75 132.908 75 131.25C75 129.592 75.6585 128.003 76.8306 126.831C78.0027 125.658 79.5924 125 81.25 125H109.375C111.861 125 114.246 124.012 116.004 122.254C117.762 120.496 118.75 118.111 118.75 115.625C118.75 113.139 117.762 110.754 116.004 108.996C114.246 107.238 111.861 106.25 109.375 106.25H90.625C84.8234 106.25 79.2594 103.945 75.1571 99.843C71.0547 95.7406 68.75 90.1766 68.75 84.375C68.75 78.5734 71.0547 73.0094 75.1571 68.907C79.2594 64.8047 84.8234 62.5 90.625 62.5H93.75V56.25C93.75 54.5924 94.4085 53.0027 95.5806 51.8306C96.7527 50.6585 98.3424 50 100 50C101.658 50 103.247 50.6585 104.419 51.8306C105.592 53.0027 106.25 54.5924 106.25 56.25V62.5H118.75C120.408 62.5 121.997 63.1585 123.169 64.3306C124.342 65.5027 125 67.0924 125 68.75C125 70.4076 124.342 71.9973 123.169 73.1694C121.997 74.3415 120.408 75 118.75 75H90.625C88.1386 75 85.7541 75.9877 83.9959 77.7459C82.2378 79.504 81.25 81.8886 81.25 84.375C81.25 86.8614 82.2378 89.246 83.9959 91.0041C85.7541 92.7623 88.1386 93.75 90.625 93.75H109.375C115.177 93.75 120.741 96.0547 124.843 100.157C128.945 104.259 131.25 109.823 131.25 115.625C131.25 121.427 128.945 126.991 124.843 131.093C120.741 135.195 115.177 137.5 109.375 137.5V137.5Z" fill="#FFC107"/>
</svg>
