<svg width="1170" height="234" viewBox="0 0 1170 234" fill="none" xmlns="http://www.w3.org/2000/svg">
<path d="M118.75 93.75H106.25V43.75H112.5C119.128 43.7575 125.483 46.3939 130.169 51.0806C134.856 55.7674 137.492 62.1219 137.5 68.75C137.5 70.4076 138.158 71.9973 139.331 73.1694C140.503 74.3415 142.092 75 143.75 75C145.408 75 146.997 74.3415 148.169 73.1694C149.342 71.9973 150 70.4076 150 68.75C149.989 58.8078 146.034 49.276 139.004 42.2458C131.974 35.2156 122.442 31.2612 112.5 31.25H106.25V18.75C106.25 17.0924 105.592 15.5027 104.419 14.3306C103.247 13.1585 101.658 12.5 100 12.5C98.3424 12.5 96.7527 13.1585 95.5806 14.3306C94.4085 15.5027 93.75 17.0924 93.75 18.75V31.25H84.375C74.4294 31.25 64.8911 35.2009 57.8585 42.2335C50.8259 49.2661 46.875 58.8044 46.875 68.75C46.875 78.6956 50.8259 88.2339 57.8585 95.2665C64.8911 102.299 74.4294 106.25 84.375 106.25H93.75V156.25H81.25C74.6219 156.242 68.2674 153.606 63.5806 148.919C58.8939 144.233 56.2575 137.878 56.25 131.25C56.25 129.592 55.5915 128.003 54.4194 126.831C53.2473 125.658 51.6576 125 50 125C48.3424 125 46.7527 125.658 45.5806 126.831C44.4085 128.003 43.75 129.592 43.75 131.25C43.7612 141.192 47.7156 150.724 54.7458 157.754C61.776 164.784 71.3078 168.739 81.25 168.75H93.75V181.25C93.75 182.908 94.4085 184.497 95.5806 185.669C96.7527 186.842 98.3424 187.5 100 187.5C101.658 187.5 103.247 186.842 104.419 185.669C105.592 184.497 106.25 182.908 106.25 181.25V168.75H118.75C128.696 168.75 138.234 164.799 145.267 157.767C152.299 150.734 156.25 141.196 156.25 131.25C156.25 121.304 152.299 111.766 145.267 104.733C138.234 97.7009 128.696 93.75 118.75 93.75ZM93.75 93.75H84.375C77.7446 93.75 71.3857 91.1161 66.6973 86.4277C62.0089 81.7393 59.375 75.3804 59.375 68.75C59.375 62.1196 62.0089 55.7607 66.6973 51.0723C71.3857 46.3839 77.7446 43.75 84.375 43.75H93.75V93.75ZM118.75 156.25H106.25V106.25H118.75C125.38 106.25 131.739 108.884 136.428 113.572C141.116 118.261 143.75 124.62 143.75 131.25C143.75 137.88 141.116 144.239 136.428 148.928C131.739 153.616 125.38 156.25 118.75 156.25Z" fill="#FFC107"/>
<path d="M203.04 125.6C203.04 115.712 205.248 106.88 209.664 99.104C214.176 91.232 220.272 85.136 227.952 80.816C235.728 76.4 244.416 74.192 254.016 74.192C265.248 74.192 275.088 77.072 283.536 82.832C291.984 88.592 297.888 96.56 301.248 106.736H278.064C275.76 101.936 272.496 98.336 268.272 95.936C264.144 93.536 259.344 92.336 253.872 92.336C248.016 92.336 242.784 93.728 238.176 96.512C233.664 99.2 230.112 103.04 227.52 108.032C225.024 113.024 223.776 118.88 223.776 125.6C223.776 132.224 225.024 138.08 227.52 143.168C230.112 148.16 233.664 152.048 238.176 154.832C242.784 157.52 248.016 158.864 253.872 158.864C259.344 158.864 264.144 157.664 268.272 155.264C272.496 152.768 275.76 149.12 278.064 144.32H301.248C297.888 154.592 291.984 162.608 283.536 168.368C275.184 174.032 265.344 176.864 254.016 176.864C244.416 176.864 235.728 174.704 227.952 170.384C220.272 165.968 214.176 159.872 209.664 152.096C205.248 144.32 203.04 135.488 203.04 125.6ZM392.627 134.384C392.627 137.264 392.435 139.856 392.051 142.16H333.731C334.211 147.92 336.227 152.432 339.779 155.696C343.331 158.96 347.699 160.592 352.883 160.592C360.371 160.592 365.699 157.376 368.867 150.944H390.611C388.307 158.624 383.891 164.96 377.363 169.952C370.835 174.848 362.819 177.296 353.315 177.296C345.635 177.296 338.723 175.616 332.579 172.256C326.531 168.8 321.779 163.952 318.323 157.712C314.963 151.472 313.283 144.272 313.283 136.112C313.283 127.856 314.963 120.608 318.323 114.368C321.683 108.128 326.387 103.328 332.435 99.968C338.483 96.608 345.443 94.928 353.315 94.928C360.899 94.928 367.667 96.56 373.619 99.824C379.667 103.088 384.323 107.744 387.587 113.792C390.947 119.744 392.627 126.608 392.627 134.384ZM371.747 128.624C371.651 123.44 369.779 119.312 366.131 116.24C362.483 113.072 358.019 111.488 352.739 111.488C347.747 111.488 343.523 113.024 340.067 116.096C336.707 119.072 334.643 123.248 333.875 128.624H371.747ZM402.158 135.824C402.158 127.76 403.742 120.608 406.91 114.368C410.174 108.128 414.59 103.328 420.158 99.968C425.726 96.608 431.918 94.928 438.734 94.928C443.918 94.928 448.862 96.08 453.566 98.384C458.27 100.592 462.014 103.568 464.798 107.312V69.44H485.246V176H464.798V164.192C462.302 168.128 458.798 171.296 454.286 173.696C449.774 176.096 444.542 177.296 438.59 177.296C431.87 177.296 425.726 175.568 420.158 172.112C414.59 168.656 410.174 163.808 406.91 157.568C403.742 151.232 402.158 143.984 402.158 135.824ZM464.942 136.112C464.942 131.216 463.982 127.04 462.062 123.584C460.142 120.032 457.55 117.344 454.286 115.52C451.022 113.6 447.518 112.64 443.774 112.64C440.03 112.64 436.574 113.552 433.406 115.376C430.238 117.2 427.646 119.888 425.63 123.44C423.71 126.896 422.75 131.024 422.75 135.824C422.75 140.624 423.71 144.848 425.63 148.496C427.646 152.048 430.238 154.784 433.406 156.704C436.67 158.624 440.126 159.584 443.774 159.584C447.518 159.584 451.022 158.672 454.286 156.848C457.55 154.928 460.142 152.24 462.062 148.784C463.982 145.232 464.942 141.008 464.942 136.112ZM525.096 108.608C527.688 104.384 531.048 101.072 535.176 98.672C539.4 96.272 544.2 95.072 549.576 95.072V116.24H544.248C537.912 116.24 533.112 117.728 529.848 120.704C526.68 123.68 525.096 128.864 525.096 136.256V176H504.936V96.224H525.096V108.608ZM598.579 177.296C590.899 177.296 583.987 175.616 577.843 172.256C571.699 168.8 566.851 163.952 563.299 157.712C559.843 151.472 558.115 144.272 558.115 136.112C558.115 127.952 559.891 120.752 563.443 114.512C567.091 108.272 572.035 103.472 578.275 100.112C584.515 96.656 591.475 94.928 599.155 94.928C606.835 94.928 613.795 96.656 620.035 100.112C626.275 103.472 631.171 108.272 634.723 114.512C638.371 120.752 640.195 127.952 640.195 136.112C640.195 144.272 638.323 151.472 634.579 157.712C630.931 163.952 625.939 168.8 619.603 172.256C613.363 175.616 606.355 177.296 598.579 177.296ZM598.579 159.728C602.227 159.728 605.635 158.864 608.803 157.136C612.067 155.312 614.659 152.624 616.579 149.072C618.499 145.52 619.459 141.2 619.459 136.112C619.459 128.528 617.443 122.72 613.411 118.688C609.475 114.56 604.627 112.496 598.867 112.496C593.107 112.496 588.259 114.56 584.323 118.688C580.483 122.72 578.563 128.528 578.563 136.112C578.563 143.696 580.435 149.552 584.179 153.68C588.019 157.712 592.819 159.728 598.579 159.728Z" fill="white"/>
<path d="M655.559 176V129.344L647.927 114.944L655.559 108.032C655.079 106.4 654.695 104.24 654.407 101.552C654.215 98.768 654.119 96.512 654.119 94.784C654.119 89.312 655.367 84.512 657.863 80.384C660.455 76.256 664.007 73.04 668.519 70.736C673.031 68.336 678.119 67.136 683.783 67.136C686.471 67.136 689.303 67.28 692.279 67.568C695.351 67.76 697.991 68.144 700.199 68.72L715.607 77.504L704.519 97.52L687.959 87.44C684.695 87.44 682.295 88.64 680.759 91.04C679.223 93.344 678.455 95.936 678.455 98.816C678.455 100.928 678.791 102.8 679.463 104.432C680.135 106.064 680.807 107.264 681.479 108.032H704.519V125.312H681.479V152.672L682.919 167.216L681.479 176H655.559ZM731.475 103.856L713.187 85.424L731.475 67.136L749.763 85.424L731.475 103.856ZM718.515 176V128.336L715.491 116.816L718.371 108.032H744.435V176H718.515ZM760.562 176V132.656L757.682 116.816L762.146 108.032H783.602V114.224L784.898 115.088C785.954 114.128 787.394 113.024 789.218 111.776C791.138 110.432 793.442 109.232 796.13 108.176C798.818 107.12 801.842 106.592 805.202 106.592C813.842 106.592 820.322 109.04 824.642 113.936C828.962 118.832 831.122 125.696 831.122 134.528V152.816L834.146 167.216L831.122 176H805.202V138.272C805.202 134.624 804.386 131.84 802.754 129.92C801.218 127.904 798.77 126.896 795.41 126.896L786.482 129.632V176H760.562ZM866.751 177.44C862.623 177.44 858.783 176.864 855.231 175.712C851.775 174.464 848.991 172.352 846.879 169.376C844.767 166.4 843.711 162.272 843.711 156.992C843.711 152.192 844.911 148.208 847.311 145.04C849.711 141.872 852.975 139.52 857.103 137.984C861.231 136.448 865.887 135.68 871.071 135.68C876.063 135.68 879.807 136.256 882.303 137.408C884.799 138.464 886.959 139.568 888.783 140.72L889.791 139.856C889.791 136.976 889.551 134.576 889.071 132.656C888.591 130.736 887.487 129.296 885.759 128.336C884.031 127.28 881.343 126.752 877.695 126.752C874.143 126.752 870.351 127.088 866.319 127.76C862.383 128.336 858.735 129.104 855.375 130.064C852.111 130.928 849.663 131.792 848.031 132.656V111.056C851.007 110 855.231 109.04 860.703 108.176C866.271 107.216 873.087 106.736 881.151 106.736C889.791 106.736 896.607 107.84 901.599 110.048C906.687 112.16 910.335 115.28 912.543 119.408C914.751 123.44 915.855 128.288 915.855 133.952V153.104L918.735 167.648L915.855 176.144H891.231V169.088L889.791 168.368C889.023 169.136 887.679 170.24 885.759 171.68C883.839 173.12 881.295 174.464 878.127 175.712C874.959 176.864 871.167 177.44 866.751 177.44ZM878.991 158.576C881.583 158.576 883.791 158.336 885.615 157.856C887.535 157.376 888.927 156.944 889.791 156.56V153.824C889.791 152.576 888.879 151.376 887.055 150.224C885.327 149.072 882.591 148.496 878.847 148.496C873.663 148.496 871.071 150.32 871.071 153.968C871.071 155.504 871.647 156.656 872.799 157.424C873.951 158.192 876.015 158.576 878.991 158.576ZM933.109 176V132.656L930.229 116.816L934.693 108.032H956.149V114.224L957.445 115.088C958.501 114.128 959.941 113.024 961.765 111.776C963.685 110.432 965.989 109.232 968.677 108.176C971.365 107.12 974.389 106.592 977.749 106.592C986.389 106.592 992.869 109.04 997.189 113.936C1001.51 118.832 1003.67 125.696 1003.67 134.528V152.816L1006.69 167.216L1003.67 176H977.749V138.272C977.749 134.624 976.933 131.84 975.301 129.92C973.765 127.904 971.317 126.896 967.957 126.896L959.029 129.632V176H933.109ZM1050.82 177.44C1044.19 177.44 1038.19 176.336 1032.82 174.128C1027.54 171.92 1023.31 168.224 1020.15 163.04C1017.07 157.856 1015.54 150.848 1015.54 142.016C1015.54 133.088 1017.22 126.08 1020.58 120.992C1023.94 115.808 1028.31 112.112 1033.68 109.904C1039.06 107.696 1044.77 106.592 1050.82 106.592C1056.1 106.592 1060.61 106.784 1064.35 107.168C1068.19 107.552 1070.74 107.888 1071.99 108.176L1083.22 120.848L1071.7 136.544L1055.14 126.752C1046.88 126.752 1042.75 131.84 1042.75 142.016C1042.75 147.296 1044 151.184 1046.5 153.68C1048.99 156.08 1052.83 157.28 1058.02 157.28C1063.2 157.28 1067.86 156.56 1071.99 155.12C1076.11 153.68 1079.33 152.336 1081.63 151.088V171.824C1078.66 173.36 1074.72 174.704 1069.83 175.856C1065.03 176.912 1058.69 177.44 1050.82 177.44ZM1130.76 177.44C1123.37 177.44 1116.79 176.336 1111.03 174.128C1105.27 171.92 1100.76 168.224 1097.5 163.04C1094.23 157.856 1092.6 150.848 1092.6 142.016C1092.6 135.68 1093.66 130.256 1095.77 125.744C1097.98 121.232 1100.9 117.584 1104.55 114.8C1108.2 111.92 1112.28 109.856 1116.79 108.608C1121.3 107.264 1125.96 106.592 1130.76 106.592C1139.02 106.592 1145.35 107.408 1149.77 109.04C1154.28 110.672 1157.26 111.968 1158.7 112.928L1165.9 135.824L1163.02 144.752H1118.38C1119.05 148.304 1120.82 151.28 1123.7 153.68C1126.58 156.08 1131.34 157.28 1137.96 157.28C1143.14 157.28 1147.61 156.704 1151.35 155.552C1155.1 154.4 1158.02 153.392 1160.14 152.528V171.824C1157.26 173.36 1153.08 174.704 1147.61 175.856C1142.23 176.912 1136.62 177.44 1130.76 177.44ZM1118.52 135.536L1138.39 132.656L1137.1 126.464C1136.42 126.08 1135.42 125.792 1134.07 125.6C1132.82 125.408 1131.72 125.312 1130.76 125.312C1128.07 125.312 1125.82 125.888 1123.99 127.04C1122.26 128.192 1120.92 129.584 1119.96 131.216C1119.1 132.752 1118.62 134.192 1118.52 135.536Z" fill="#FFC107"/>
</svg>
